Dactyl Sans Bold.sfdir
StartChar: !
Encoding: 33 33 18
Width: 226
InSpiro: 1
Flags: H
LayerCount: 2
Back
SplineSet
60 664 m 0
 64 664 l 0
 64 260 l 0
 60 260 l 0
 60 664 l 0
  Spiro
    60 664 v
    64 664 v
    64 260 v
    60 260 v
    0 0 z
  EndSpiro
62 55 m 0
 63 55 65 55 66 57 c 0
 68 58 68 60 69 62 c 0
 69 63 68 65 66 66 c 0
 65 68 63 69 62 69 c 0
 60 68 58 68 57 66 c 0
 55 65 55 63 55 62 c 0
 54 60 55 58 57 57 c 0
 58 55 60 54 62 55 c 0
  Spiro
    62 55 c
    69 62 c
    62 69 c
    55 62 c
    0 0 z
  EndSpiro
EndSplineSet
Fore
SplineSet
-2 720 m 0
 122 720 l 0
 122 200 l 0
 -2 200 l 0
 -2 720 l 0
  Spiro
    -2 720 v
    122 720 v
    122 200 v
    -2 200 v
    0 0 z
  EndSpiro
60 -5 m 0
 77 -4 93 2 105 14 c 0
 117 26 124 42 125 60 c 0
 125 77 117 93 105 105 c 0
 93 117 77 125 60 125 c 0
 42 124 26 117 14 105 c 0
 2 93 -4 77 -5 60 c 0
 -5 42 2 26 14 14 c 0
 26 2 42 -5 60 -5 c 0
  Spiro
    60 -5 c
    125 60 c
    60 125 c
    -5 60 c
    0 0 z
  EndSpiro
EndSplineSet
EndChar
StartChar: "
Encoding: 34 34 0
Width: 376
InSpiro: 1
        Flags: H
        LayerCount: 2
        Back
        SplineSet
60 664 m 0
64 664 l 0
64 510 l 0
60 510 l 0
60 664 l 0
Z
209 664 m 0
214 664 l 0
214 510 l 0
209 510 l 0
209 664 l 0
Z
Spiro
60 664 v
64 664 v
64 510 v
60 510 v
209 664 v
214 664 v
214 510 v
209 510 v
0 0 z
EndSpiro
EndSplineSet
        Fore
        SplineSet
-2 720 m 0
122 720 l 0
122 450 l 0
-2 450 l 0
-2 720 l 0
Z
147 720 m 0
272 720 l 0
272 450 l 0
147 450 l 0
147 720 l 0
Z
Spiro
-2 720 v
122 720 v
122 450 v
-2 450 v
147 720 v
272 720 v
272 450 v
147 450 v
0 0 z
EndSpiro
EndSplineSet
        EndChar
StartChar: #
Encoding: 35 35 29
Width: 526
InSpiro: 1
Flags: H
LayerCount: 2
Back
SplineSet
60 460 m 0
 60 464 l 0
 364 464 l 0
 364 460 l 0
 60 460 l 0
  Spiro
    60 460 v
    60 464 v
    364 464 v
    364 460 v
    0 0 z
  EndSpiro
60 260 m 0
 60 264 l 0
 364 264 l 0
 364 260 l 0
 60 260 l 0
  Spiro
    60 260 v
    60 264 v
    364 264 v
    364 260 v
    0 0 z
  EndSpiro
284 664 m 0
 289 664 l 0
 289 60 l 0
 284 60 l 0
 284 664 l 0
  Spiro
    284 664 v
    289 664 v
    289 60 v
    284 60 v
    0 0 z
  EndSpiro
134 664 m 0
 139 664 l 0
 139 60 l 0
 134 60 l 0
 134 664 l 0
  Spiro
    134 664 v
    139 664 v
    139 60 v
    134 60 v
    0 0 z
  EndSpiro
EndSplineSet
Fore
SplineSet
-2 400 m 0
 -2 520 l 0
 422 520 l 0
 422 400 l 0
 -2 400 l 0
  Spiro
    -2 400 v
    -2 520 v
    422 520 v
    422 400 v
    0 0 z
  EndSpiro
-2 200 m 0
 -2 320 l 0
 422 320 l 0
 422 200 l 0
 -2 200 l 0
  Spiro
    -2 200 v
    -2 320 v
    422 320 v
    422 200 v
    0 0 z
  EndSpiro
222 720 m 0
 347 720 l 0
 347 0 l 0
 222 0 l 0
 222 720 l 0
  Spiro
    222 720 v
    347 720 v
    347 0 v
    222 0 v
    0 0 z
  EndSpiro
72 720 m 0
 197 720 l 0
 197 0 l 0
 72 0 l 0
 72 720 l 0
  Spiro
    72 720 v
    197 720 v
    197 0 v
    72 0 v
    0 0 z
  EndSpiro
EndSplineSet
EndChar
StartChar: %
Encoding: 37 37 34
Width: 526
InSpiro: 1
Flags: H
LayerCount: 2
Back
SplineSet
359 664 m 0
 364 664 l 0
 64 60 l 0
 60 60 l 0
 359 664 l 0
  Spiro
    359 664 v
    364 664 v
    64 60 v
    60 60 v
    0 0 z
  EndSpiro
60 541 m 0
 62 552 69 561 74 571 c 0
 80 581 86 591 90 602 c 0
 94 612 97 623 102 634 c 0
 106 644 111 655 120 663 c 0
 126 668 134 672 143 674 c 0
 151 675 160 674 168 672 c 0
 185 666 198 652 205 636 c 0
 211 620 212 602 207 585 c 0
 203 568 194 553 183 540 c 0
 174 530 165 521 154 514 c 0
 143 508 131 503 118 502 c 0
 106 501 93 504 82 511 c 0
 71 517 62 528 60 541 c 0
  Spiro
    60 541 c
    60 562 h
    120 663 c
    183 540 c
    0 0 z
    0 0 z
  EndSpiro
364 182 m 0
 361 170 354 161 349 151 c 0
 343 141 337 131 333 120 c 0
 329 110 325 99 321 88 c 0
 317 78 311 67 303 60 c 0
 296 54 288 50 279 49 c 0
 271 47 262 48 254 51 c 0
 237 57 224 70 218 86 c 0
 211 102 211 120 215 137 c 0
 220 154 228 169 240 183 c 0
 248 192 257 201 268 208 c 0
 279 215 291 219 304 220 c 0
 317 221 330 218 341 212 c 0
 352 205 361 194 364 182 c 0
  Spiro
    364 182 c
    364 161 h
    303 60 c
    240 183 c
    0 0 z
    0 0 z
  EndSpiro
EndSplineSet
Fore
SplineSet
297 720 m 0
 422 720 l 0
 122 0 l 0
 -2 0 l 0
 297 720 l 0
  Spiro
    297 720 v
    422 720 v
    122 0 v
    -2 0 v
    0 0 z
  EndSpiro
-1 526 m 0
 2 541 10 556 17 571 c 0
 24 586 31 601 37 616 c 0
 42 631 47 647 54 662 c 0
 60 677 67 692 78 705 c 0
 88 717 103 727 118 733 c 0
 134 738 151 740 167 738 c 0
 201 733 231 713 249 685 c 0
 267 658 274 623 270 590 c 0
 265 557 250 526 228 501 c 0
 212 483 193 468 172 458 c 0
 150 448 126 443 103 444 c 0
 79 445 56 453 37 468 c 0
 18 482 4 503 -1 526 c 0
  Spiro
    -1 526 c
    -1 573 h
    78 705 c
    228 501 c
    0 0 z
    0 0 z
  EndSpiro
421 193 m 0
 417 177 409 162 402 147 c 0
 395 132 388 117 382 102 c 0
 376 87 371 71 365 56 c 0
 359 41 351 26 341 14 c 0
 330 1 315 -7 300 -13 c 0
 284 -19 267 -20 251 -18 c 0
 218 -13 188 6 170 33 c 0
 151 61 145 96 149 129 c 0
 153 161 169 192 191 218 c 0
 206 235 225 250 247 261 c 0
 268 271 292 276 316 275 c 0
 339 273 363 265 382 251 c 0
 401 236 415 216 421 193 c 0
  Spiro
    421 193 c
    421 146 h
    341 14 c
    191 218 c
    0 0 z
    0 0 z
  EndSpiro
EndSplineSet
EndChar
StartChar: .
Encoding: 46 46 35
Width: 376
InSpiro: 1
Flags: H
LayerCount: 2
Back
SplineSet
212 55 m 0
 213 55 215 55 216 57 c 0
 218 58 218 60 219 62 c 0
 219 63 218 65 216 66 c 0
 215 68 213 69 212 69 c 0
 210 68 208 68 207 66 c 0
 205 65 205 63 205 62 c 0
 204 60 205 58 207 57 c 0
 208 55 210 54 212 55 c 0
  Spiro
    212 55 c
    219 62 c
    212 69 c
    205 62 c
    0 0 z
  EndSpiro
EndSplineSet
Fore
SplineSet
210 -5 m 0
 227 -4 243 2 255 14 c 0
 267 26 274 42 275 60 c 0
 275 77 267 93 255 105 c 0
 243 117 227 125 210 125 c 0
 192 124 176 117 164 105 c 0
 152 93 145 77 145 60 c 0
 144 42 152 26 164 14 c 0
 176 2 192 -5 210 -5 c 0
  Spiro
    210 -5 c
    275 60 c
    210 125 c
    145 60 c
    0 0 z
  EndSpiro
EndSplineSet
EndChar
StartChar: 2
Encoding: 50 50 0
Width: 526
InSpiro: 1
        Flags: H
        LayerCount: 2
        Back
        SplineSet
64 560 m 0
60 560 l 0
70 591 91 618 118 636 c 0
145 655 179 664 212 663 c 0
250 661 288 643 316 616 c 0
343 588 360 550 364 512 c 0
369 456 347 401 317 355 c 0
288 308 250 267 213 226 c 0
66 63 l 0
364 64 l 0
364 60 l 0
60 60 l 0
60 60 l 0
210 229 l 0
246 269 283 310 312 356 c 0
342 402 363 456 359 511 c 0
355 549 339 586 312 613 c 0
286 640 249 658 211 660 c 0
179 661 147 652 120 634 c 0
94 616 74 590 64 560 c 0
Z
Spiro
64 560 v
60 560 v
212 663 c
364 512 c
213 226 [
66 63 v
364 64 v
364 60 v
60 60 v
60 60 v
210 229 ]
359 511 c
211 660 c
0 0 z
EndSpiro
EndSplineSet
        Fore
        SplineSet
122 500 m 0
-2 500 l 0
-4 557 17 615 57 656 c 0
97 697 155 720 213 719 c 0
266 717 318 694 356 657 c 0
394 619 417 568 422 515 c 0
426 451 405 388 373 334 c 0
340 279 298 232 256 185 c 0
197 119 l 0
422 120 l 0
422 0 l 0
-2 0 l 0
-2 0 l 0
163 266 l 0
187 305 214 342 242 379 c 0
255 398 269 416 279 437 c 0
290 458 297 480 297 504 c 0
296 528 287 552 270 570 c 0
254 588 230 599 206 600 c 0
181 600 156 588 140 569 c 0
124 550 117 524 122 500 c 0
Z
Spiro
122 500 v
-2 500 v
213 719 c
422 515 c
256 185 [
197 119 v
422 120 v
422 0 v
-2 0 v
-2 0 v
163 266 ]
297 504 c
206 600 c
0 0 z
EndSpiro
EndSplineSet
        EndChar
StartChar: 6
Encoding: 54 54 0
Width: 526
InSpiro: 1
        Flags: H
        LayerCount: 2
        Back
        SplineSet
364 560 m 0
359 560 l 0
352 592 332 621 305 639 c 0
278 658 244 665 212 660 c 0
182 654 154 638 133 617 c 0
112 595 97 568 86 540 c 0
66 483 65 421 64 361 c 0
61 298 58 235 78 176 c 0
88 146 104 119 127 98 c 0
150 77 180 63 212 63 c 0
235 62 258 69 277 80 c 0
297 92 314 109 327 128 c 0
352 167 360 214 359 261 c 0
357 305 345 351 320 388 c 0
308 407 292 423 273 436 c 0
254 448 233 457 211 460 c 0
178 464 145 455 118 437 c 0
91 419 72 391 64 360 c 0
60 360 l 0
68 392 88 421 116 440 c 0
144 458 178 467 212 463 c 0
257 457 298 428 324 391 c 0
350 353 362 307 364 262 c 0
365 214 356 165 330 125 c 0
317 106 299 89 279 77 c 0
258 65 234 59 211 60 c 0
179 61 149 75 126 96 c 0
102 117 86 145 75 175 c 0
54 234 57 299 60 362 c 0
62 422 63 485 84 542 c 0
94 571 110 598 132 619 c 0
153 641 181 657 211 663 c 0
244 669 280 661 308 642 c 0
336 623 357 593 364 560 c 0
Z
Spiro
364 560 v
359 560 v
212 660 c
64 361 c
212 63 c
359 261 c
211 460 c
64 360 v
60 360 v
212 463 c
364 262 c
211 60 c
60 362 c
211 663 c
0 0 z
EndSpiro
EndSplineSet
        Fore
        SplineSet
422 500 m 0
297 500 l 0
304 523 299 550 284 569 c 0
270 589 245 600 221 600 c 0
196 599 173 586 157 568 c 0
141 549 131 526 126 502 c 0
116 455 124 405 122 357 c 0
119 308 107 259 116 211 c 0
120 188 129 164 146 146 c 0
154 137 164 130 175 125 c 0
186 120 198 118 211 119 c 0
225 119 240 125 252 134 c 0
264 143 273 156 280 169 c 0
294 196 297 226 297 257 c 0
296 288 291 320 276 347 c 0
268 361 258 373 245 383 c 0
232 392 217 398 202 400 c 0
176 402 151 390 135 371 c 0
119 351 114 324 122 300 c 0
-2 300 l 0
-9 359 11 420 54 462 c 0
96 505 157 526 217 519 c 0
276 511 330 476 365 428 c 0
401 381 419 321 422 262 c 0
424 198 409 132 371 81 c 0
352 56 328 34 300 20 c 0
271 5 239 -1 208 0 c 0
169 2 132 18 101 42 c 0
71 66 48 99 32 134 c 0
0 204 -4 284 -2 362 c 0
0 435 7 510 38 577 c 0
53 611 74 642 101 667 c 0
128 692 162 710 198 719 c 0
258 732 325 713 369 670 c 0
413 626 434 560 422 500 c 0
Z
Spiro
422 500 v
297 500 v
221 600 c
122 357 c
211 119 c
297 257 c
202 400 c
122 300 v
-2 300 v
217 519 c
422 262 c
208 0 c
-2 362 c
198 719 c
0 0 z
EndSpiro
EndSplineSet
        EndChar
StartChar: 7
Encoding: 55 55 0
Width: 526
InSpiro: 1
        Flags: H
        LayerCount: 2
        Back
        SplineSet
60 660 m 0
60 664 l 0
364 664 l 0
364 664 l 0
214 60 l 0
209 60 l 0
359 660 l 0
60 660 l 0
Z
Spiro
60 660 v
60 664 v
364 664 v
364 664 v
214 60 v
209 60 v
359 660 v
0 0 z
EndSpiro
EndSplineSet
        Fore
        SplineSet
-2 600 m 0
-2 720 l 0
422 720 l 0
422 720 l 0
272 0 l 0
147 0 l 0
280 600 l 0
-2 600 l 0
Z
Spiro
-2 600 v
-2 720 v
422 720 v
422 720 v
272 0 v
147 0 v
280 600 v
0 0 z
EndSpiro
EndSplineSet
        EndChar
StartChar: 8
Encoding: 56 56 0
Width: 526
InSpiro: 1
        Flags: H
        LayerCount: 2
        Back
        SplineSet
212 660 m 0
172 660 131 646 102 619 c 0
87 606 76 589 69 570 c 0
62 552 60 531 64 512 c 0
67 494 75 477 85 462 c 0
95 447 108 434 122 423 c 0
150 399 181 381 213 363 c 0
244 344 276 325 304 302 c 0
318 290 331 277 342 262 c 0
352 247 360 230 364 212 c 0
367 191 365 170 358 151 c 0
351 132 339 114 324 100 c 0
293 73 252 59 211 60 c 0
170 60 129 73 99 101 c 0
84 115 72 132 65 151 c 0
58 171 56 191 60 212 c 0
63 229 71 246 81 262 c 0
91 277 104 290 118 302 c 0
146 325 178 344 210 363 c 0
241 381 272 399 300 423 c 0
314 434 327 447 337 462 c 0
347 477 355 494 359 512 c 0
362 531 360 551 353 570 c 0
346 589 335 605 320 619 c 0
291 646 251 659 212 660 c 0
Z
364 511 m 0
360 492 352 475 342 460 c 0
331 445 318 432 304 420 c 0
276 397 244 378 213 360 c 0
181 341 150 323 122 299 c 0
108 288 95 275 85 260 c 0
75 245 67 228 64 211 c 0
60 191 62 171 69 152 c 0
76 133 88 117 102 103 c 0
131 76 172 63 212 64 c 0
251 64 291 77 320 104 c 0
335 117 346 134 353 152 c 0
360 171 362 191 359 211 c 0
355 228 347 245 337 260 c 0
327 275 314 288 300 299 c 0
272 323 241 341 210 360 c 0
178 378 146 397 118 420 c 0
104 432 91 445 81 460 c 0
71 476 63 493 60 511 c 0
56 531 58 552 65 571 c 0
72 590 84 607 98 621 c 0
128 649 170 663 211 664 c 0
252 664 294 650 324 622 c 0
339 608 351 591 358 571 c 0
365 552 367 531 364 511 c 0
Z
Spiro
212 660 c
64 512 c
213 363 a
313 303 h
364 212 c
211 60 c
60 212 c
210 363 a
310 423 h
359 512 c
364 511 c
213 360 a
113 300 h
64 211 c
212 64 c
359 211 c
210 360 a
110 420 h
60 511 c
211 664 c
0 0 z
EndSpiro
EndSplineSet
        Fore
        SplineSet
210 600 m 0
187 600 164 593 146 579 c 0
138 572 130 563 126 553 c 0
121 542 119 531 121 520 c 0
122 506 129 493 138 482 c 0
147 471 158 462 169 454 c 0
193 438 217 425 242 411 c 0
280 387 319 364 352 333 c 0
385 303 412 264 421 220 c 0
426 191 424 161 414 133 c 0
405 106 388 81 368 60 c 0
326 20 267 0 209 0 c 0
151 0 92 21 51 61 c 0
30 82 14 107 5 134 c 0
-3 161 -6 191 -1 220 c 0
7 264 34 303 66 333 c 0
99 364 138 387 177 411 c 0
201 425 225 438 249 454 c 0
260 462 271 471 280 482 c 0
289 493 296 506 298 520 c 0
299 531 297 542 292 552 c 0
288 563 281 572 272 579 c 0
255 593 232 599 210 600 c 0
Z
421 499 m 0
412 454 385 415 352 385 c 0
319 354 280 331 242 308 c 0
217 293 192 280 169 264 c 0
158 256 147 247 138 236 c 0
129 225 122 212 121 199 c 0
119 187 121 176 126 166 c 0
131 156 138 147 147 140 c 0
164 125 187 119 210 120 c 0
232 120 254 126 272 140 c 0
280 147 287 156 292 166 c 0
297 176 299 187 298 199 c 0
296 212 289 225 280 236 c 0
271 247 260 256 249 264 c 0
226 280 201 293 177 308 c 0
138 331 99 354 66 385 c 0
34 415 7 454 -1 499 c 0
-6 527 -3 557 5 584 c 0
14 612 30 637 51 657 c 0
92 698 151 719 209 720 c 0
267 720 326 699 368 658 c 0
389 638 405 612 414 585 c 0
424 557 426 527 421 499 c 0
Z
Spiro
210 600 c
121 520 c
242 411 a
342 351 h
421 220 c
209 0 c
-1 220 c
177 411 a
277 471 h
298 520 c
421 499 c
242 308 a
142 248 h
121 199 c
210 120 c
298 199 c
177 308 a
77 368 h
-1 499 c
209 720 c
0 0 z
EndSpiro
EndSplineSet
        EndChar
StartChar: 9
Encoding: 57 57 0
Width: 526
InSpiro: 1
        Flags: H
        LayerCount: 2
        Back
        SplineSet
214 60 m 0
209 60 l 0
286 143 339 249 359 362 c 0
367 411 370 462 359 511 c 0
350 547 334 582 309 610 c 0
283 638 248 657 211 660 c 0
171 662 132 646 104 618 c 0
77 590 62 551 64 512 c 0
65 473 81 435 108 408 c 0
135 380 173 364 212 363 c 0
243 362 275 371 301 389 c 0
328 407 348 434 359 464 c 0
364 464 l 0
352 432 331 405 304 387 c 0
277 368 243 358 211 360 c 0
171 361 133 377 105 405 c 0
77 433 61 471 60 511 c 0
58 551 74 592 102 621 c 0
130 649 171 665 212 663 c 0
250 660 286 640 312 612 c 0
338 585 355 549 364 512 c 0
375 462 372 410 364 361 c 0
343 249 291 143 214 60 c 0
Z
Spiro
214 60 v
209 60 v
359 362 c
359 511 c
211 660 c
64 512 c
212 363 c
359 464 v
364 464 v
211 360 c
60 511 c
212 663 c
364 512 c
364 361 c
0 0 z
EndSpiro
EndSplineSet
        Fore
        SplineSet
272 0 m 0
147 0 l 0
225 108 277 236 297 370 c 0
302 411 305 454 298 496 c 0
293 520 284 545 269 564 c 0
261 574 251 583 240 589 c 0
229 595 217 599 205 600 c 0
182 600 160 590 144 574 c 0
129 557 121 534 122 512 c 0
122 488 131 464 147 446 c 0
164 429 188 418 212 419 c 0
235 419 258 429 274 446 c 0
290 463 298 486 297 510 c 0
422 510 l 0
421 454 398 399 358 360 c 0
318 321 262 299 207 300 c 0
152 300 99 323 60 361 c 0
22 399 0 452 -2 507 c 0
-3 563 18 621 59 661 c 0
99 701 157 723 214 719 c 0
264 715 313 691 349 655 c 0
385 619 409 572 421 523 c 0
434 466 431 406 422 349 c 0
401 222 349 101 272 0 c 0
Z
Spiro
272 0 v
147 0 v
297 370 c
298 496 c
205 600 c
122 512 c
212 419 c
297 510 v
422 510 v
207 300 c
-2 507 c
214 719 c
421 523 c
422 349 c
0 0 z
EndSpiro
EndSplineSet
        EndChar
StartChar: A
Encoding: 65 65 0
Width: 526
InSpiro: 1
        Flags: H
        LayerCount: 2
        Back
        SplineSet
64 60 m 0
60 60 l 0
96 212 l 0
209 664 l 0
214 664 l 0
327 212 l 0
364 60 l 0
359 60 l 0
322 211 l 0
212 653 l 0
101 211 l 0
64 60 l 0
Z
96 210 m 0
96 214 l 0
327 214 l 0
327 210 l 0
96 210 l 0
Z
Spiro
64 60 v
60 60 v
96 212 v
209 664 v
214 664 v
327 212 v
364 60 v
359 60 v
322 211 v
212 653 v
101 211 v
96 210 v
96 214 v
327 214 v
327 210 v
0 0 z
EndSpiro
EndSplineSet
        Fore
        SplineSet
122 0 m 0
-2 0 l 0
35 224 l 0
147 720 l 0
272 720 l 0
384 224 l 0
422 0 l 0
297 0 l 0
261 195 l 0
210 413 l 0
158 195 l 0
122 0 l 0
Z
34 150 m 0
34 270 l 0
385 270 l 0
385 150 l 0
34 150 l 0
Z
Spiro
122 0 v
-2 0 v
35 224 v
147 720 v
272 720 v
384 224 v
422 0 v
297 0 v
261 195 v
210 413 v
158 195 v
34 150 v
34 270 v
385 270 v
385 150 v
0 0 z
EndSpiro
EndSplineSet
        EndChar
StartChar: B
Encoding: 66 66 0
Width: 526
InSpiro: 1
        Flags: H
        LayerCount: 2
        Back
        SplineSet
64 60 m 0
60 60 l 0
60 664 l 0
60 664 l 0
212 664 l 0
232 664 253 663 273 658 c 0
293 652 312 642 326 627 c 0
341 612 351 593 356 573 c 0
362 553 364 532 364 512 c 0
364 491 362 470 356 450 c 0
351 430 341 411 326 396 c 0
312 381 293 371 273 365 c 0
253 360 232 359 212 360 c 0
60 360 l 0
60 364 l 0
212 364 l 0
232 364 252 364 271 369 c 0
291 375 309 385 323 399 c 0
337 414 346 432 352 452 c 0
357 471 359 491 359 512 c 0
359 532 357 552 352 571 c 0
346 591 337 609 323 624 c 0
309 638 291 648 271 654 c 0
252 659 232 660 212 660 c 0
64 660 l 0
64 60 l 0
Z
60 360 m 0
60 364 l 0
212 364 l 0
232 364 253 363 273 358 c 0
293 352 312 342 326 327 c 0
341 312 351 293 356 273 c 0
362 253 364 232 364 212 c 0
364 191 362 170 356 150 c 0
351 130 341 111 326 96 c 0
312 81 293 71 273 65 c 0
253 60 232 59 212 60 c 0
60 60 l 0
60 64 l 0
212 64 l 0
232 64 252 64 271 69 c 0
291 75 309 85 323 99 c 0
337 114 346 132 352 152 c 0
357 171 359 191 359 212 c 0
359 232 357 252 352 271 c 0
346 291 337 309 323 324 c 0
309 338 291 348 271 354 c 0
252 359 232 360 212 360 c 0
60 360 l 0
Z
Spiro
64 60 v
60 60 v
60 664 v
60 664 v
212 664 ]
364 512 c
212 360 [
60 360 v
60 364 v
212 364 ]
359 512 c
212 660 [
64 660 v
60 360 v
60 364 v
212 364 ]
364 212 c
212 60 [
60 60 v
60 64 v
212 64 ]
359 212 c
212 360 [
0 0 z
EndSpiro
EndSplineSet
        Fore
        SplineSet
122 0 m 0
-2 0 l 0
-2 720 l 0
-2 720 l 0
210 720 l 0
238 720 267 719 295 711 c 0
323 704 349 690 370 669 c 0
390 649 404 623 412 595 c 0
420 567 423 538 423 510 c 0
423 481 420 452 412 424 c 0
404 396 390 370 370 350 c 0
349 329 323 315 295 308 c 0
267 300 238 299 210 300 c 0
-2 300 l 0
-2 420 l 0
210 420 l 0
222 420 234 420 246 423 c 0
257 426 268 433 276 442 c 0
284 451 290 462 293 473 c 0
296 485 297 497 297 510 c 0
297 522 296 534 293 546 c 0
290 557 284 569 276 577 c 0
268 586 257 593 246 596 c 0
234 599 222 600 210 600 c 0
122 600 l 0
122 0 l 0
Z
-2 300 m 0
-2 420 l 0
210 420 l 0
238 420 267 419 295 411 c 0
323 404 349 390 370 369 c 0
390 349 404 323 412 295 c 0
420 267 423 238 423 210 c 0
423 181 420 152 412 124 c 0
404 96 390 70 370 50 c 0
349 29 323 15 295 8 c 0
267 0 238 0 210 0 c 0
-2 0 l 0
-2 120 l 0
210 120 l 0
222 119 234 120 246 123 c 0
257 126 268 133 276 142 c 0
284 151 290 162 293 173 c 0
296 185 297 197 297 210 c 0
297 222 296 234 293 246 c 0
290 257 284 269 276 277 c 0
268 286 257 293 246 296 c 0
234 299 222 300 210 300 c 0
-2 300 l 0
Z
Spiro
122 0 v
-2 0 v
-2 720 v
-2 720 v
210 720 ]
423 510 c
210 300 [
-2 300 v
-2 420 v
210 420 ]
297 510 c
210 600 [
122 600 v
-2 300 v
-2 420 v
210 420 ]
423 210 c
210 0 [
-2 0 v
-2 120 v
210 120 ]
297 210 c
210 300 [
0 0 z
EndSpiro
EndSplineSet
        EndChar
StartChar: D
Encoding: 68 68 0
Width: 526
InSpiro: 1
        Flags: H
        LayerCount: 2
        Back
        SplineSet
60 60 m 0
60 60 l 0
60 664 l 0
60 664 l 0
212 664 l 0
232 664 254 663 274 658 c 0
294 653 313 643 328 628 c 0
343 613 353 594 358 574 c 0
363 554 364 532 364 512 c 0
364 212 l 0
364 191 363 169 358 149 c 0
353 129 343 110 328 95 c 0
313 80 294 70 274 65 c 0
254 60 232 59 212 60 c 0
60 60 l 0
Z
212 64 m 0
232 64 252 64 272 69 c 0
292 74 310 84 325 98 c 0
339 113 349 131 353 151 c 0
358 171 359 191 359 212 c 0
359 512 l 0
359 532 358 552 353 572 c 0
348 592 339 611 325 625 c 0
310 639 292 649 272 654 c 0
252 659 232 660 212 660 c 0
64 660 l 0
64 64 l 0
212 64 l 0
Z
Spiro
60 60 v
60 60 v
60 664 v
60 664 v
212 664 ]
364 512 [
364 212 ]
212 60 [
212 64 ]
359 212 [
359 512 ]
212 660 [
64 660 v
64 64 v
0 0 z
EndSpiro
EndSplineSet
        Fore
        SplineSet
-2 0 m 0
-2 0 l 0
-2 720 l 0
-2 720 l 0
210 720 l 0
239 720 268 719 296 712 c 0
325 705 352 692 372 671 c 0
393 651 408 624 415 596 c 0
422 568 423 539 423 510 c 0
423 210 l 0
423 180 422 151 415 123 c 0
408 94 393 68 372 48 c 0
352 27 325 14 296 7 c 0
268 0 239 0 210 0 c 0
-2 0 l 0
Z
210 120 m 0
222 120 234 120 246 123 c 0
258 126 269 132 277 141 c 0
285 150 291 161 294 173 c 0
296 185 297 197 297 210 c 0
297 510 l 0
297 522 296 534 294 546 c 0
291 558 285 569 277 578 c 0
269 587 258 593 246 596 c 0
234 599 222 600 210 600 c 0
122 600 l 0
122 120 l 0
210 120 l 0
Z
Spiro
-2 0 v
-2 0 v
-2 720 v
-2 720 v
210 720 ]
423 510 [
423 210 ]
210 0 [
210 120 ]
297 210 [
297 510 ]
210 600 [
122 600 v
122 120 v
0 0 z
EndSpiro
EndSplineSet
        EndChar
StartChar: G
Encoding: 71 71 0
Width: 526
InSpiro: 1
        Flags: H
        LayerCount: 2
        Back
        SplineSet
364 560 m 0
359 560 l 0
351 591 332 620 305 639 c 0
278 657 244 665 212 660 c 0
181 655 154 639 132 618 c 0
110 597 94 570 84 542 c 0
62 485 62 422 64 362 c 0
65 301 67 240 88 184 c 0
99 156 114 129 135 108 c 0
156 86 182 70 212 63 c 0
232 58 253 57 273 63 c 0
293 68 312 79 326 95 c 0
339 110 349 129 353 150 c 0
358 170 359 191 359 212 c 0
359 360 l 0
209 360 l 0
209 364 l 0
364 364 l 0
364 364 l 0
364 212 l 0
364 190 363 168 358 148 c 0
353 127 343 107 329 91 c 0
314 75 295 64 274 59 c 0
253 54 231 54 211 60 c 0
181 67 155 84 134 105 c 0
113 127 97 154 86 182 c 0
64 238 61 300 60 361 c 0
58 422 59 485 80 543 c 0
91 572 108 599 130 620 c 0
152 642 180 657 211 663 c 0
244 668 279 660 307 641 c 0
336 622 356 593 364 560 c 0
Z
Spiro
364 560 v
359 560 v
212 660 c
64 362 c
212 63 c
359 212 [
359 360 v
209 360 v
209 364 v
364 364 v
364 364 v
364 212 ]
211 60 c
60 361 c
211 663 c
0 0 z
EndSpiro
EndSplineSet
        Fore
        SplineSet
422 500 m 0
297 500 l 0
304 523 299 550 284 569 c 0
269 589 244 600 220 600 c 0
195 599 172 586 156 569 c 0
140 551 130 528 124 505 c 0
114 458 121 409 122 361 c 0
122 311 114 261 125 213 c 0
131 189 142 165 159 147 c 0
176 130 200 118 225 118 c 0
236 117 247 120 257 125 c 0
267 130 275 137 282 146 c 0
288 155 292 166 294 176 c 0
296 187 297 198 297 210 c 0
297 300 l 0
147 300 l 0
147 420 l 0
422 420 l 0
422 420 l 0
423 210 l 0
423 178 422 146 415 116 c 0
407 85 392 56 369 34 c 0
347 12 317 -1 286 -7 c 0
255 -12 223 -9 194 1 c 0
125 24 72 81 41 146 c 0
10 212 0 285 -2 358 c 0
-4 433 2 510 33 578 c 0
49 612 71 643 99 668 c 0
127 693 162 711 199 719 c 0
259 730 324 710 368 668 c 0
411 625 432 560 422 500 c 0
Z
Spiro
422 500 v
297 500 v
220 600 c
122 361 c
225 118 c
297 210 [
297 300 v
147 300 v
147 420 v
422 420 v
422 420 v
423 210 ]
194 1 c
-2 358 c
199 719 c
0 0 z
EndSpiro
EndSplineSet
        EndChar
StartChar: H
Encoding: 72 72 0
Width: 526
InSpiro: 1
        Flags: H
        LayerCount: 2
        Back
        SplineSet
64 60 m 0
60 60 l 0
60 664 l 0
64 664 l 0
64 60 l 0
Z
60 360 m 0
60 364 l 0
364 364 l 0
364 360 l 0
60 360 l 0
Z
364 60 m 0
359 60 l 0
359 664 l 0
364 664 l 0
364 60 l 0
Z
Spiro
64 60 v
60 60 v
60 664 v
64 664 v
60 360 v
60 364 v
364 364 v
364 360 v
364 60 v
359 60 v
359 664 v
364 664 v
0 0 z
EndSpiro
EndSplineSet
        Fore
        SplineSet
122 0 m 0
-2 0 l 0
-2 720 l 0
122 720 l 0
122 0 l 0
Z
-2 300 m 0
-2 420 l 0
422 420 l 0
422 300 l 0
-2 300 l 0
Z
422 0 m 0
297 0 l 0
297 720 l 0
422 720 l 0
422 0 l 0
Z
Spiro
122 0 v
-2 0 v
-2 720 v
122 720 v
-2 300 v
-2 420 v
422 420 v
422 300 v
422 0 v
297 0 v
297 720 v
422 720 v
0 0 z
EndSpiro
EndSplineSet
        EndChar
StartChar: L
Encoding: 76 76 0
Width: 526
InSpiro: 1
        Flags: H
        LayerCount: 2
        Back
        SplineSet
60 664 m 0
64 664 l 0
64 64 l 0
364 64 l 0
364 60 l 0
60 60 l 0
60 60 l 0
60 664 l 0
Z
Spiro
60 664 v
64 664 v
64 64 v
364 64 v
364 60 v
60 60 v
60 60 v
0 0 z
EndSpiro
EndSplineSet
        Fore
        SplineSet
-2 720 m 0
122 720 l 0
122 120 l 0
422 120 l 0
422 0 l 0
-2 0 l 0
-2 0 l 0
-2 720 l 0
Z
Spiro
-2 720 v
122 720 v
122 120 v
422 120 v
422 0 v
-2 0 v
-2 0 v
0 0 z
EndSpiro
EndSplineSet
        EndChar
StartChar: M
Encoding: 77 77 0
Width: 676
InSpiro: 1
        Flags: H
        LayerCount: 2
        Back
        SplineSet
64 60 m 0
60 60 l 0
60 664 l 0
64 664 l 0
287 67 l 0
509 664 l 0
514 664 l 0
514 60 l 0
509 60 l 0
509 650 l 0
289 60 l 0
284 60 l 0
64 650 l 0
64 60 l 0
Z
Spiro
64 60 v
60 60 v
60 664 v
64 664 v
287 67 v
509 664 v
514 664 v
514 60 v
509 60 v
509 650 v
289 60 v
284 60 v
64 650 v
0 0 z
EndSpiro
EndSplineSet
        Fore
        SplineSet
122 0 m 0
-2 0 l 0
-2 720 l 0
122 720 l 0
285 230 l 0
447 720 l 0
572 720 l 0
572 0 l 0
447 0 l 0
449 329 l 0
347 0 l 0
222 0 l 0
120 329 l 0
122 0 l 0
Z
Spiro
122 0 v
-2 0 v
-2 720 v
122 720 v
285 230 v
447 720 v
572 720 v
572 0 v
447 0 v
449 329 v
347 0 v
222 0 v
120 329 v
0 0 z
EndSpiro
EndSplineSet
        EndChar
StartChar: N
Encoding: 78 78 0
Width: 526
InSpiro: 1
        Flags: H
        LayerCount: 2
        Back
        SplineSet
64 60 m 0
60 60 l 0
60 664 l 0
64 664 l 0
359 70 l 0
359 664 l 0
364 664 l 0
364 60 l 0
359 60 l 0
64 653 l 0
64 60 l 0
Z
Spiro
64 60 v
60 60 v
60 664 v
64 664 v
359 70 v
359 664 v
364 664 v
364 60 v
359 60 v
64 653 v
0 0 z
EndSpiro
EndSplineSet
        Fore
        SplineSet
122 0 m 0
-2 0 l 0
-2 720 l 0
122 720 l 0
299 314 l 0
297 720 l 0
422 720 l 0
422 0 l 0
297 0 l 0
120 405 l 0
122 0 l 0
Z
Spiro
122 0 v
-2 0 v
-2 720 v
122 720 v
299 314 v
297 720 v
422 720 v
422 0 v
297 0 v
120 405 v
0 0 z
EndSpiro
EndSplineSet
        EndChar
StartChar: Q
Encoding: 81 81 0
Width: 526
InSpiro: 1
        Flags: H
        LayerCount: 2
        Back
        SplineSet
284 214 m 0
289 214 l 0
364 60 l 0
359 60 l 0
284 214 l 0
Z
64 361 m 0
64 299 65 237 83 178 c 0
93 149 107 121 129 99 c 0
150 78 180 63 211 63 c 0
241 62 271 77 293 99 c 0
315 121 329 149 339 178 c 0
358 237 359 300 359 362 c 0
358 423 357 486 339 544 c 0
329 573 314 601 293 623 c 0
271 645 241 660 211 660 c 0
180 659 150 644 129 623 c 0
107 601 92 573 83 543 c 0
64 485 63 422 64 361 c 0
Z
212 663 m 0
243 663 273 648 295 626 c 0
317 604 332 575 342 546 c 0
362 487 364 423 364 361 c 0
363 298 362 235 342 176 c 0
332 146 317 118 295 96 c 0
273 74 243 60 212 60 c 0
180 59 150 74 128 96 c 0
106 118 91 147 81 176 c 0
61 235 59 299 60 362 c 0
60 424 61 487 81 546 c 0
91 576 106 604 128 626 c 0
150 648 180 662 212 663 c 0
Z
Spiro
284 214 v
289 214 v
364 60 v
359 60 v
64 361 o
211 63 c
359 362 o
211 660 c
212 663 c
364 361 o
212 60 c
60 362 o
0 0 z
EndSpiro
EndSplineSet
        Fore
        SplineSet
222 270 m 0
347 270 l 0
422 0 l 0
297 0 l 0
222 270 l 0
Z
122 359 m 0
122 311 116 264 123 217 c 0
127 193 134 170 148 151 c 0
156 142 164 134 175 128 c 0
185 122 197 119 209 119 c 0
220 118 232 122 243 128 c 0
253 133 262 142 269 151 c 0
284 170 291 193 295 217 c 0
302 264 296 312 297 360 c 0
296 407 302 455 295 501 c 0
291 525 283 548 269 567 c 0
262 576 253 585 242 590 c 0
232 596 220 600 209 600 c 0
197 599 185 596 175 590 c 0
164 584 155 576 148 567 c 0
134 548 126 524 123 501 c 0
116 454 122 406 122 359 c 0
Z
210 719 m 0
248 719 286 702 315 678 c 0
345 653 367 620 382 585 c 0
414 514 422 436 422 359 c 0
421 282 413 203 382 133 c 0
366 98 344 65 315 40 c 0
285 16 248 0 210 0 c 0
171 0 133 16 104 40 c 0
74 65 52 98 37 133 c 0
5 204 -2 282 -2 360 c 0
-1 436 6 515 37 585 c 0
53 620 75 653 104 678 c 0
134 702 171 718 210 719 c 0
Z
Spiro
222 270 v
347 270 v
422 0 v
297 0 v
122 359 o
209 119 c
297 360 o
209 600 c
210 719 c
422 359 o
210 0 c
-2 360 o
0 0 z
EndSpiro
EndSplineSet
        EndChar
StartChar: T
Encoding: 84 84 0
Width: 526
InSpiro: 1
        Flags: H
        LayerCount: 2
        Back
        SplineSet
60 660 m 0
60 664 l 0
364 664 l 0
364 660 l 0
60 660 l 0
Z
209 664 m 0
214 664 l 0
214 60 l 0
209 60 l 0
209 664 l 0
Z
Spiro
60 660 v
60 664 v
364 664 v
364 660 v
209 664 v
214 664 v
214 60 v
209 60 v
0 0 z
EndSpiro
EndSplineSet
        Fore
        SplineSet
-2 600 m 0
-2 720 l 0
422 720 l 0
422 600 l 0
-2 600 l 0
Z
147 720 m 0
272 720 l 0
272 0 l 0
147 0 l 0
147 720 l 0
Z
Spiro
-2 600 v
-2 720 v
422 720 v
422 600 v
147 720 v
272 720 v
272 0 v
147 0 v
0 0 z
EndSpiro
EndSplineSet
        EndChar
StartChar: U
Encoding: 85 85 0
Width: 526
InSpiro: 1
        Flags: H
        LayerCount: 2
        Back
        SplineSet
60 664 m 0
64 664 l 0
64 362 l 0
64 300 62 237 81 178 c 0
91 149 106 121 128 100 c 0
150 78 180 64 211 64 c 0
241 63 271 78 294 99 c 0
316 120 331 148 341 178 c 0
360 237 358 300 359 362 c 0
359 664 l 0
364 664 l 0
364 362 l 0
364 299 365 235 345 175 c 0
335 145 319 117 296 95 c 0
273 74 243 60 212 60 c 0
180 60 150 74 127 95 c 0
104 117 88 145 78 175 c 0
58 234 60 299 60 362 c 0
60 664 l 0
Z
Spiro
60 664 v
64 664 v
64 362 ]
211 64 c
359 362 [
359 664 v
364 664 v
364 362 ]
212 60 c
60 362 [
0 0 z
EndSpiro
EndSplineSet
        Fore
        SplineSet
-2 720 m 0
122 720 l 0
123 360 l 0
123 313 119 265 126 219 c 0
129 196 136 172 150 153 c 0
156 144 165 135 175 129 c 0
185 123 197 120 209 120 c 0
220 119 232 123 242 129 c 0
253 135 261 143 268 152 c 0
282 171 290 195 293 218 c 0
300 265 296 312 297 360 c 0
297 720 l 0
422 720 l 0
423 360 l 0
423 281 421 201 389 129 c 0
373 94 349 61 318 38 c 0
287 14 249 0 210 0 c 0
170 0 132 14 101 38 c 0
70 61 46 94 30 129 c 0
-1 201 -3 281 -3 360 c 0
-2 720 l 0
Z
Spiro
-2 720 v
122 720 v
123 360 ]
209 120 c
297 360 [
297 720 v
422 720 v
423 360 ]
210 0 c
-3 360 [
0 0 z
EndSpiro
EndSplineSet
        EndChar
StartChar: V
Encoding: 86 86 0
Width: 526
InSpiro: 1
        Flags: H
        LayerCount: 2
        Back
        SplineSet
60 664 m 0
64 664 l 0
212 70 l 0
359 664 l 0
364 664 l 0
214 60 l 0
209 60 l 0
60 664 l 0
Z
Spiro
60 664 v
64 664 v
212 70 v
359 664 v
364 664 v
214 60 v
209 60 v
0 0 z
EndSpiro
EndSplineSet
        Fore
        SplineSet
-2 720 m 0
122 720 l 0
210 307 l 0
297 720 l 0
422 720 l 0
272 0 l 0
147 0 l 0
-2 720 l 0
Z
Spiro
-2 720 v
122 720 v
210 307 v
297 720 v
422 720 v
272 0 v
147 0 v
0 0 z
EndSpiro
EndSplineSet
        EndChar
StartChar: Y
Encoding: 89 89 0
Width: 526
InSpiro: 1
        Flags: H
        LayerCount: 2
        Back
        SplineSet
60 664 m 0
64 664 l 0
212 366 l 0
359 664 l 0
364 664 l 0
214 360 l 0
209 360 l 0
60 664 l 0
Z
209 364 m 0
214 364 l 0
214 60 l 0
209 60 l 0
209 364 l 0
Z
Spiro
60 664 v
64 664 v
212 366 v
359 664 v
364 664 v
214 360 v
209 360 v
209 364 v
214 364 v
214 60 v
209 60 v
0 0 z
EndSpiro
EndSplineSet
        Fore
        SplineSet
-2 720 m 0
122 720 l 0
210 494 l 0
297 720 l 0
422 720 l 0
272 300 l 0
147 300 l 0
-2 720 l 0
Z
147 420 m 0
272 420 l 0
272 0 l 0
147 0 l 0
147 420 l 0
Z
Spiro
-2 720 v
122 720 v
210 494 v
297 720 v
422 720 v
272 300 v
147 300 v
147 420 v
272 420 v
272 0 v
147 0 v
0 0 z
EndSpiro
EndSplineSet
        EndChar
StartChar: c
Encoding: 99 99 0
Width: 526
InSpiro: 1
        Flags: H
        LayerCount: 2
        Back
        SplineSet
364 322 m 0
359 322 l 0
349 352 328 378 302 396 c 0
276 414 243 422 212 420 c 0
169 416 130 393 103 360 c 0
77 327 64 284 64 242 c 0
63 199 77 156 103 123 c 0
129 89 169 66 212 63 c 0
243 60 276 68 302 86 c 0
329 104 349 131 359 162 c 0
364 162 l 0
353 130 332 102 305 84 c 0
277 65 243 57 211 60 c 0
168 63 127 87 100 120 c 0
73 154 60 197 60 241 c 0
59 284 73 327 100 361 c 0
127 395 167 419 211 423 c 0
243 425 277 417 305 399 c 0
332 381 353 353 364 322 c 0
Z
Spiro
364 322 v
359 322 v
212 420 c
64 242 c
212 63 c
359 162 v
364 162 v
211 60 c
60 241 c
211 423 c
0 0 z
EndSpiro
EndSplineSet
        Fore
        SplineSet
422 440 m 0
422 320 l 0
395 343 362 360 326 367 c 0
291 374 254 371 221 360 c 0
194 350 170 336 152 315 c 0
133 294 122 267 122 240 c 0
121 212 133 184 151 163 c 0
170 143 194 128 221 119 c 0
254 107 291 104 327 111 c 0
362 119 395 135 422 160 c 0
422 39 l 0
356 -3 273 -18 198 0 c 0
143 13 92 42 56 85 c 0
19 127 -1 182 -2 239 c 0
-2 295 19 350 56 393 c 0
92 436 143 465 198 479 c 0
273 497 356 482 422 440 c 0
Z
Spiro
422 440 v
422 320 v
221 360 c
122 240 c
221 119 c
422 160 v
422 39 v
198 0 c
-2 239 c
198 479 c
0 0 z
EndSpiro
EndSplineSet
        EndChar
StartChar: d
Encoding: 100 100 0
Width: 526
InSpiro: 1
        Flags: H
        LayerCount: 2
        Back
        SplineSet
364 60 m 0
359 60 l 0
359 664 l 0
364 664 l 0
364 60 l 0
Z
364 320 m 0
359 320 l 0
349 350 329 377 303 395 c 0
276 413 243 422 212 420 c 0
169 416 130 393 103 360 c 0
77 327 64 284 64 242 c 0
63 199 76 156 103 122 c 0
129 89 169 66 212 63 c 0
244 60 276 69 303 87 c 0
329 105 349 133 359 164 c 0
364 164 l 0
354 132 333 103 305 84 c 0
278 66 244 57 211 60 c 0
168 63 127 86 100 120 c 0
73 154 60 197 60 241 c 0
59 284 73 327 100 361 c 0
127 395 167 419 211 423 c 0
244 425 278 417 305 398 c 0
333 379 354 351 364 320 c 0
Z
Spiro
364 60 v
359 60 v
359 664 v
364 664 v
364 320 v
359 320 v
212 420 c
64 242 c
212 63 c
359 164 v
364 164 v
211 60 c
60 241 c
211 423 c
0 0 z
EndSpiro
EndSplineSet
        Fore
        SplineSet
422 0 m 0
297 0 l 0
297 720 l 0
422 720 l 0
422 0 l 0
Z
422 260 m 0
297 260 l 0
303 284 297 311 281 330 c 0
265 350 240 361 215 360 c 0
201 359 187 354 175 347 c 0
163 340 153 330 145 319 c 0
129 296 122 267 122 240 c 0
121 211 128 183 144 160 c 0
152 148 163 138 175 131 c 0
187 124 200 119 215 119 c 0
240 117 265 128 281 148 c 0
297 168 303 195 297 220 c 0
422 220 l 0
426 161 405 101 363 59 c 0
322 17 262 -4 204 0 c 0
146 4 91 34 54 78 c 0
17 123 -1 181 -2 239 c 0
-2 296 17 355 54 399 c 0
91 444 146 474 204 479 c 0
262 483 322 461 363 419 c 0
404 378 426 318 422 260 c 0
Z
Spiro
422 0 v
297 0 v
297 720 v
422 720 v
422 260 v
297 260 v
215 360 c
122 240 c
215 119 c
297 220 v
422 220 v
204 0 c
-2 239 c
204 479 c
0 0 z
EndSpiro
EndSplineSet
        EndChar
StartChar: e
Encoding: 101 101 0
Width: 526
InSpiro: 1
        Flags: H
        LayerCount: 2
        Back
        SplineSet
61 240 m 0
61 244 l 0
360 244 l 0
373 274 373 310 360 341 c 0
348 368 326 391 299 405 c 0
272 419 241 424 212 420 c 0
170 414 131 391 105 358 c 0
78 325 64 283 64 241 c 0
63 198 76 155 103 122 c 0
129 88 169 66 212 63 c 0
243 60 276 69 302 87 c 0
329 104 349 131 359 162 c 0
364 162 l 0
353 130 332 102 305 84 c 0
277 66 243 57 211 60 c 0
167 63 126 86 99 120 c 0
72 154 59 198 60 242 c 0
60 284 75 327 102 360 c 0
129 394 168 417 211 423 c 0
241 427 273 422 300 407 c 0
328 393 350 370 363 342 c 0
377 310 377 272 364 240 c 0
364 240 l 0
61 240 l 0
Z
Spiro
61 240 v
61 244 v
360 244 v
360 341 c
212 420 c
64 241 c
212 63 c
359 162 v
364 162 v
211 60 c
60 242 c
211 423 c
363 342 c
364 240 v
364 240 v
0 0 z
EndSpiro
EndSplineSet
        Fore
        SplineSet
57 180 m 0
57 300 l 0
318 300 l 0
312 305 307 310 302 316 c 0
290 327 277 337 263 345 c 0
249 353 233 359 217 360 c 0
202 360 187 357 175 350 c 0
162 343 150 334 142 322 c 0
125 299 118 268 122 240 c 0
125 212 137 186 154 165 c 0
172 144 195 128 221 118 c 0
254 104 292 100 327 108 c 0
363 115 396 134 422 160 c 0
422 39 l 0
356 -3 273 -18 198 1 c 0
144 14 94 44 58 86 c 0
22 129 0 183 -2 239 c 0
-4 296 15 355 52 399 c 0
89 443 144 473 202 479 c 0
245 483 289 474 327 454 c 0
365 433 397 401 417 363 c 0
445 306 447 237 422 180 c 0
422 180 l 0
57 180 l 0
Z
Spiro
57 180 v
57 300 v
318 300 v
302 316 c
217 360 c
122 240 c
221 118 c
422 160 v
422 39 v
198 1 c
-2 239 c
202 479 c
417 363 c
422 180 v
422 180 v
0 0 z
EndSpiro
EndSplineSet
        EndChar
StartChar: f
Encoding: 102 102 0
Width: 376
InSpiro: 1
        Flags: H
        LayerCount: 2
        Back
        SplineSet
214 664 m 0
214 660 l 0
188 656 163 645 142 630 c 0
121 615 104 595 91 572 c 0
79 550 71 525 68 499 c 0
64 473 63 447 64 422 c 0
64 60 l 0
60 60 l 0
60 422 l 0
60 448 60 474 64 501 c 0
68 527 75 553 88 576 c 0
101 599 119 619 140 634 c 0
162 650 187 660 214 664 c 0
Z
60 420 m 0
60 424 l 0
214 424 l 0
214 420 l 0
60 420 l 0
Z
Spiro
214 664 v
214 660 v
64 422 [
64 60 v
60 60 v
60 422 ]
60 420 v
60 424 v
214 424 v
214 420 v
0 0 z
EndSpiro
EndSplineSet
        Fore
        SplineSet
272 720 m 0
272 600 l 0
249 604 226 601 205 592 c 0
184 583 166 568 153 550 c 0
139 531 131 510 127 487 c 0
123 465 123 442 123 420 c 0
122 0 l 0
-2 0 l 0
-3 420 l 0
-3 460 -2 501 5 541 c 0
13 581 28 619 54 651 c 0
79 683 113 708 152 720 c 0
190 732 233 732 272 720 c 0
Z
-2 360 m 0
-2 480 l 0
272 480 l 0
272 360 l 0
-2 360 l 0
Z
Spiro
272 720 v
272 600 v
123 420 [
122 0 v
-2 0 v
-3 420 ]
-2 360 v
-2 480 v
272 480 v
272 360 v
0 0 z
EndSpiro
EndSplineSet
        EndChar
StartChar: h
Encoding: 104 104 0
Width: 526
InSpiro: 1
        Flags: H
        LayerCount: 2
        Back
        SplineSet
64 60 m 0
60 60 l 0
60 664 l 0
64 664 l 0
64 60 l 0
Z
64 320 m 0
60 320 l 0
73 349 94 374 120 392 c 0
147 410 178 421 211 423 c 0
233 424 256 420 277 411 c 0
298 403 317 388 331 371 c 0
345 353 354 331 359 309 c 0
363 287 364 264 364 242 c 0
364 60 l 0
359 60 l 0
359 242 l 0
358 264 358 286 354 307 c 0
349 329 341 350 327 367 c 0
314 385 296 399 276 407 c 0
256 416 233 420 212 420 c 0
180 419 149 409 123 391 c 0
97 373 76 348 64 320 c 0
Z
Spiro
64 60 v
60 60 v
60 664 v
64 664 v
64 320 v
60 320 v
211 423 c
364 242 [
364 60 v
359 60 v
359 242 ]
212 420 c
0 0 z
EndSpiro
EndSplineSet
        Fore
        SplineSet
122 0 m 0
-2 0 l 0
-2 720 l 0
122 720 l 0
122 0 l 0
Z
122 260 m 0
-2 260 l 0
1 314 25 367 63 407 c 0
100 446 152 472 207 479 c 0
238 482 270 479 299 469 c 0
329 459 355 441 375 417 c 0
396 393 409 363 416 333 c 0
422 302 423 271 423 240 c 0
422 0 l 0
297 0 l 0
297 240 l 0
296 253 296 267 294 281 c 0
292 294 287 308 280 319 c 0
273 331 263 341 251 348 c 0
239 355 225 359 212 360 c 0
186 361 160 350 143 331 c 0
126 312 118 285 122 260 c 0
Z
Spiro
122 0 v
-2 0 v
-2 720 v
122 720 v
122 260 v
-2 260 v
207 479 c
423 240 [
422 0 v
297 0 v
297 240 ]
212 360 c
0 0 z
EndSpiro
EndSplineSet
        EndChar
StartChar: i
Encoding: 105 105 0
Width: 226
InSpiro: 1
        Flags: H
        LayerCount: 2
        Back
        SplineSet
60 424 m 0
64 424 l 0
64 60 l 0
60 60 l 0
60 424 l 0
Z
62 535 m 0
63 534 65 535 66 537 c 0
68 538 69 540 69 542 c 0
68 543 68 545 66 546 c 0
65 548 63 548 62 549 c 0
60 549 58 548 57 546 c 0
55 545 55 543 55 542 c 0
54 540 55 538 57 537 c 0
58 535 60 534 62 535 c 0
Z
Spiro
60 424 v
64 424 v
64 60 v
60 60 v
62 535 c
69 542 c
62 549 c
55 542 c
0 0 z
EndSpiro
EndSplineSet
        Fore
        SplineSet
-2 480 m 0
122 480 l 0
122 0 l 0
-2 0 l 0
-2 480 l 0
Z
60 535 m 0
77 534 93 542 105 554 c 0
117 566 125 582 125 600 c 0
124 617 117 633 105 645 c 0
93 657 77 664 60 665 c 0
42 665 26 657 14 645 c 0
2 633 -4 617 -5 600 c 0
-5 582 2 566 14 554 c 0
26 542 42 534 60 535 c 0
Z
Spiro
-2 480 v
122 480 v
122 0 v
-2 0 v
60 535 c
125 600 c
60 665 c
-5 600 c
0 0 z
EndSpiro
EndSplineSet
        EndChar
StartChar: j
Encoding: 106 106 0
Width: 466
InSpiro: 1
        Flags: H
        LayerCount: 2
        Back
        SplineSet
299 424 m 0
304 424 l 0
304 62 l 0
303 6 306 -49 297 -103 c 0
292 -131 284 -158 271 -182 c 0
257 -206 237 -227 212 -239 c 0
195 -246 176 -249 158 -248 c 0
140 -246 122 -240 107 -230 c 0
92 -219 79 -205 71 -189 c 0
63 -172 59 -154 60 -136 c 0
64 -136 l 0
63 -153 66 -171 74 -187 c 0
82 -203 94 -217 109 -227 c 0
124 -237 141 -243 159 -245 c 0
176 -246 194 -243 211 -236 c 0
235 -224 255 -203 268 -179 c 0
281 -156 289 -129 293 -102 c 0
301 -48 298 6 299 61 c 0
299 424 l 0
Z
302 535 m 0
303 534 305 535 306 537 c 0
308 538 309 540 309 542 c 0
308 543 308 545 306 546 c 0
305 548 303 548 302 549 c 0
300 549 298 548 297 546 c 0
295 545 295 543 295 542 c 0
294 540 295 538 297 537 c 0
298 535 300 534 302 535 c 0
Z
Spiro
299 424 v
304 424 v
304 62 ]
212 -239 c
60 -136 v
64 -136 v
211 -236 c
299 61 [
302 535 c
309 542 c
302 549 c
295 542 c
0 0 z
EndSpiro
EndSplineSet
        Fore
        SplineSet
237 480 m 0
362 480 l 0
363 60 l 0
363 -6 363 -73 347 -137 c 0
339 -169 326 -200 308 -227 c 0
289 -255 265 -278 236 -294 c 0
205 -309 169 -316 135 -311 c 0
101 -307 68 -292 42 -269 c 0
17 -246 -1 -215 -9 -181 c 0
-17 -148 -14 -112 -2 -80 c 0
122 -80 l 0
111 -89 103 -102 101 -116 c 0
99 -130 101 -145 109 -157 c 0
116 -170 127 -179 141 -184 c 0
154 -189 169 -189 183 -185 c 0
193 -181 202 -174 210 -166 c 0
218 -158 223 -149 228 -138 c 0
236 -118 239 -96 240 -73 c 0
241 -29 236 14 237 59 c 0
237 480 l 0
Z
300 535 m 0
317 534 333 542 345 554 c 0
357 566 365 582 365 600 c 0
364 617 357 633 345 645 c 0
333 657 317 664 300 665 c 0
282 665 266 657 254 645 c 0
242 633 235 617 235 600 c 0
234 582 242 566 254 554 c 0
266 542 282 534 300 535 c 0
Z
Spiro
237 480 v
362 480 v
363 60 ]
236 -294 c
-2 -80 v
122 -80 v
183 -185 c
237 59 [
300 535 c
365 600 c
300 665 c
235 600 c
0 0 z
EndSpiro
EndSplineSet
        EndChar
StartChar: r
Encoding: 114 114 0
Width: 466
InSpiro: 1
        Flags: H
        LayerCount: 2
        Back
        SplineSet
64 60 m 0
60 60 l 0
60 424 l 0
64 424 l 0
64 60 l 0
Z
64 370 m 0
60 370 l 0
76 393 100 412 127 421 c 0
154 431 184 431 212 423 c 0
235 415 256 402 272 384 c 0
288 366 299 343 304 320 c 0
299 320 l 0
294 342 284 364 268 382 c 0
253 399 233 412 211 420 c 0
184 428 155 428 129 419 c 0
102 410 79 392 64 370 c 0
Z
Spiro
64 60 v
60 60 v
60 424 v
64 424 v
64 370 v
60 370 v
212 423 c
304 320 v
299 320 v
211 420 c
0 0 z
EndSpiro
EndSplineSet
        Fore
        SplineSet
122 0 m 0
-2 0 l 0
-2 480 l 0
122 480 l 0
122 0 l 0
Z
122 310 m 0
-2 310 l 0
1 364 29 416 73 448 c 0
117 480 176 490 229 477 c 0
274 465 314 435 338 395 c 0
363 355 371 305 362 260 c 0
237 260 l 0
243 269 247 280 249 291 c 0
250 302 248 314 243 324 c 0
238 335 231 344 221 350 c 0
212 357 201 361 190 362 c 0
174 363 158 358 146 348 c 0
133 339 124 325 122 310 c 0
Z
Spiro
122 0 v
-2 0 v
-2 480 v
122 480 v
122 310 v
-2 310 v
229 477 c
362 260 v
237 260 v
190 362 c
0 0 z
EndSpiro
EndSplineSet
        EndChar
StartChar: u
Encoding: 117 117 0
Width: 466
InSpiro: 1
        Flags: H
        LayerCount: 2
        Back
        SplineSet
304 60 m 0
299 60 l 0
299 424 l 0
304 424 l 0
304 60 l 0
Z
299 164 m 0
304 164 l 0
301 139 291 115 275 96 c 0
258 78 236 65 212 60 c 0
189 55 165 57 143 66 c 0
122 75 104 90 90 109 c 0
77 128 68 150 64 172 c 0
60 195 59 218 60 242 c 0
60 424 l 0
64 424 l 0
64 242 l 0
64 219 64 196 68 174 c 0
72 152 80 130 93 112 c 0
106 93 124 78 144 69 c 0
165 61 188 58 211 63 c 0
234 67 256 80 272 98 c 0
287 116 297 140 299 164 c 0
Z
Spiro
304 60 v
299 60 v
299 424 v
304 424 v
299 164 v
304 164 v
212 60 c
60 242 [
60 424 v
64 424 v
64 242 ]
211 63 c
0 0 z
EndSpiro
EndSplineSet
        Fore
        SplineSet
362 0 m 0
237 0 l 0
237 480 l 0
362 480 l 0
362 0 l 0
Z
237 220 m 0
362 220 l 0
370 173 360 123 335 82 c 0
309 42 268 12 222 1 c 0
190 -7 156 -6 125 2 c 0
94 12 66 30 45 55 c 0
24 80 10 111 3 142 c 0
-2 174 -3 207 -3 240 c 0
-2 480 l 0
122 480 l 0
123 240 l 0
123 213 123 185 135 161 c 0
141 149 149 139 160 131 c 0
170 123 183 118 197 118 c 0
208 117 220 121 230 127 c 0
240 134 248 143 252 155 c 0
256 166 257 178 255 189 c 0
252 201 245 212 237 220 c 0
Z
Spiro
362 0 v
237 0 v
237 480 v
362 480 v
237 220 v
362 220 v
222 1 c
-3 240 [
-2 480 v
122 480 v
123 240 ]
197 118 c
0 0 z
EndSpiro
EndSplineSet
        EndChar
StartChar: v
Encoding: 118 118 0
Width: 526
InSpiro: 1
        Flags: H
        LayerCount: 2
        Back
        SplineSet
60 424 m 0
64 424 l 0
212 67 l 0
359 424 l 0
364 424 l 0
214 60 l 0
209 60 l 0
60 424 l 0
Z
Spiro
60 424 v
64 424 v
212 67 v
359 424 v
364 424 v
214 60 v
209 60 v
0 0 z
EndSpiro
EndSplineSet
        Fore
        SplineSet
-2 480 m 0
122 480 l 0
210 215 l 0
297 480 l 0
422 480 l 0
272 0 l 0
147 0 l 0
-2 480 l 0
Z
Spiro
-2 480 v
122 480 v
210 215 v
297 480 v
422 480 v
272 0 v
147 0 v
0 0 z
EndSpiro
EndSplineSet
        EndChar
StartChar: x
Encoding: 120 120 0
Width: 526
InSpiro: 1
        Flags: H
        LayerCount: 2
        Back
        SplineSet
60 424 m 0
64 424 l 0
364 60 l 0
359 60 l 0
60 424 l 0
Z
359 424 m 0
364 424 l 0
64 60 l 0
60 60 l 0
359 424 l 0
Z
Spiro
60 424 v
64 424 v
364 60 v
359 60 v
359 424 v
364 424 v
64 60 v
60 60 v
0 0 z
EndSpiro
EndSplineSet
        Fore
        SplineSet
-2 480 m 0
122 480 l 0
422 0 l 0
297 0 l 0
-2 480 l 0
Z
297 480 m 0
422 480 l 0
122 0 l 0
-2 0 l 0
297 480 l 0
Z
Spiro
-2 480 v
122 480 v
422 0 v
297 0 v
297 480 v
422 480 v
122 0 v
-2 0 v
0 0 z
EndSpiro
EndSplineSet
        EndChar
